PathFileType	4	(X/Y/Z)	C:/Users/opensim2020/Desktop/walking_exp_matlab/subject06_walking19_straight_03.trc																																																																																																																																																	
DataRate	CameraRate	NumFrames	NumMarkers	Units	OrigDataRate	OrigDataStartFrame	OrigNumFrames																																																																																																																																													
100	100	5	49	mm	100	3311	358																																																																																																																																													
Frame#	Time	LFHD			RFHD			LBHD			RBHD			C7			T10			CLAV			STRN			RBAK			LSHO			LUPA			LELB			LFRM			LWRA			LWRB			LFIN			RSHO			RUPA			RELB			RFRM			RWRA			RWRB			RFIN			LASI			RASI			LPSI			RPSI			LTHI			LKNE			LTIB			LANK			LHEE			LTOE			RTHI			RKNE			RTIB			RANK			RHEE			RTOE			*39			*40			*41			*42			*43			*44			*45			*46			*47			*48		
		X1	Y1	Z1	X2	Y2	Z2	X3	Y3	Z3	X4	Y4	Z4	X5	Y5	Z5	X6	Y6	Z6	X7	Y7	Z7	X8	Y8	Z8	X9	Y9	Z9	X10	Y10	Z10	X11	Y11	Z11	X12	Y12	Z12	X13	Y13	Z13	X14	Y14	Z14	X15	Y15	Z15	X16	Y16	Z16	X17	Y17	Z17	X18	Y18	Z18	X19	Y19	Z19	X20	Y20	Z20	X21	Y21	Z21	X22	Y22	Z22	X23	Y23	Z23	X24	Y24	Z24	X25	Y25	Z25	X26	Y26	Z26	X27	Y27	Z27	X28	Y28	Z28	X29	Y29	Z29	X30	Y30	Z30	X31	Y31	Z31	X32	Y32	Z32	X33	Y33	Z33	X34	Y34	Z34	X35	Y35	Z35	X36	Y36	Z36	X37	Y37	Z37	X38	Y38	Z38	X39	Y39	Z39	X40	Y40	Z40	X41	Y41	Z41	X42	Y42	Z42	X43	Y43	Z43	X44	Y44	Z44	X45	Y45	Z45	X46	Y46	Z46	X47	Y47	Z47	X48	Y48	Z48	X49	Y49	Z49
																																																																																																																																																				
45	0.44	-835.89178	1668.33813	1352.61682	-839.82214	1661.7738	1483.70276	-969.21759	1611.89551	1349.68933	-971.02429	1610.09607	1478.9436	-970.6626	1460.01538	1400.41626	-1014.16248	1131.97351	1406.02686	-863.95502	1379.91064	1418.09814	-829.16901	1202.53687	1417.49585	-1057.00757	1291.54285	1470.14502	-887.99097	1413.39673	1250.49902	-858.79291	1213.17651	1175.60742	-843.78955	1101.50488	1160.93701	-777.1662	965.16833	1149.19495	-694.31506	873.87457	1204.02246	-744.97772	850.50275	1160.20752	-681.3244	786.54718	1167.59497	-929.85297	1413.71716	1570.17932	-984.97827	1217.94775	1653.77905	-981.22986	1095.63733	1666.34851	-967.61993	976.30609	1684.68994	-903.62097	838.09045	1658.52148	-961.3808	838.54633	1693.34998	-923.58984	763.15155	1699.01062	-834.17639	963.18604	1319.28967	-855.54474	975.60132	1540.13379	-991.38464	997.36365	1331.95923	-1003.49213	1001.59827	1500.11267	-909.11823	650.67108	1264.37671	-921.60223	488.01212	1289.5022	-989.87836	238.96895	1297.41956	-1023.80005	70.24231	1341.70325	-1070.01013	58.5607	1383.11987	-883.00806	42.37219	1357.43066	-854.81799	650.4704	1604.26648	-813.63	530.5614	1586.53674	-908.09778	286.32184	1587.23621	-958.716	105.54816	1550.2749	-992.34863	81.96396	1499.30383	-820.57745	50.05105	1585.38428	-939.32568	1706.98779	1406.85303	NaN	NaN	NaN	NaN	NaN	NaN	NaN	NaN	NaN	NaN	NaN	NaN	NaN	NaN	NaN	NaN	NaN	NaN	NaN	NaN	NaN	NaN	NaN	NaN	NaN	NaN	NaN
46	0.45	-829.53821	1667.78467	1352.68896	-833.3797	1661.14832	1483.84204	-962.95087	1611.67041	1349.81628	-964.66284	1609.76379	1479.0542	-964.76874	1459.68762	1400.24463	-1008.78619	1131.69043	1405.4873	-858.24609	1379.38733	1418.14697	-823.7627	1201.9928	1417.40027	-1051.54456	1291.32983	1469.45923	-881.77069	1413.20825	1250.4812	-851.95825	1213.16504	1175.68616	-836.15063	1101.45911	1161.21045	-767.05621	966.15759	1150.20386	-682.0827	877.36328	1205.1156	-732.89606	852.10388	1162.60889	-667.76135	789.80981	1169.79016	-924.58417	1413.20374	1570.02344	-980.6189	1217.54077	1653.32617	-977.43457	1095.26196	1665.83643	-964.13721	975.89746	1684.34265	-900.37976	837.44012	1658.50977	-958.31982	838.00885	1692.99121	-920.79816	762.56567	1698.90894	-828.77826	962.56726	1319.3186	-850.97235	975.32397	1539.67407	-985.91394	996.86066	1331.55505	-998.26434	1001.33447	1499.73218	-904.81946	650.09082	1264.76477	-918.34064	487.43057	1289.68591	-988.23694	238.78345	1297.64636	-1023.5498	70.31041	1341.76782	-1069.95569	58.77602	1383.12146	-882.95355	42.34367	1357.46326	-848.75452	650.66815	1604.36719	-806.23895	531.12415	1586.25513	-892.58807	283.84058	1586.42896	-936.87994	101.45333	1549.16504	-969.80225	77.16539	1498.12329	-796.94867	49.7619	1583.73962	-932.75055	1706.60474	1407.00684	NaN	NaN	NaN	NaN	NaN	NaN	NaN	NaN	NaN	NaN	NaN	NaN	NaN	NaN	NaN	NaN	NaN	NaN	NaN	NaN	NaN	NaN	NaN	NaN	NaN	NaN	NaN
47	0.46	-823.03339	1667.12048	1352.828	-826.83997	1660.40564	1483.95105	-956.46997	1611.29309	1349.95178	-958.28534	1609.32031	1479.23145	-958.79266	1459.23889	1400.15662	-1003.21539	1131.27783	1404.98779	-852.50562	1378.72583	1418.13525	-818.35278	1201.35388	1417.2854	-1046.04834	1290.98669	1468.87268	-875.65521	1412.93872	1250.52405	-845.1236	1213.03723	1175.93811	-828.3595	1101.37244	1161.55664	-757.32935	967.13599	1151.32898	-670.0976	880.83594	1206.44104	-720.98535	853.79706	1165.17432	-654.48273	793.09607	1172.18835	-919.20404	1412.61646	1569.9696	-976.138	1217.07715	1652.93042	-974.15814	1095.06055	1665.35254	-960.57617	975.40594	1684.06726	-897.10217	836.75104	1658.54419	-955.16382	837.48859	1692.771	-917.91785	761.84644	1698.75525	-823.0459	961.92169	1319.34863	-845.0777	975.22504	1539.86328	-980.33759	996.31726	1331.2511	-992.84259	1000.97076	1499.39014	-900.52002	649.46204	1265.0116	-914.99945	486.81125	1289.89783	-986.53534	238.60399	1297.71729	-1023.36139	70.41085	1341.85107	-1069.80139	58.93538	1383.16895	-882.81256	42.25225	1357.60156	-842.61969	650.74396	1604.53577	-799.03815	531.51459	1586.13159	-877.54266	281.4715	1585.93005	-914.93103	97.64983	1548.14673	-947.18665	72.78903	1496.99231	-773.45856	49.60181	1582.14075	-925.96851	1706.00732	1407.20398	NaN	NaN	NaN	NaN	NaN	NaN	NaN	NaN	NaN	NaN	NaN	NaN	NaN	NaN	NaN	NaN	NaN	NaN	NaN	NaN	NaN	NaN	NaN	NaN	NaN	NaN	NaN
48	0.47	-816.38513	1666.50513	1353.11108	-820.29633	1659.62952	1484.16125	-949.99866	1610.849	1350.09937	-951.83752	1608.77917	1479.39661	-952.7702	1458.75659	1400.11609	-997.67261	1130.85339	1404.57739	-846.62012	1378.08154	1418.20007	-812.82135	1200.71033	1417.25537	-1040.41187	1290.6134	1468.30981	-869.46661	1412.5802	1250.6189	-838.44025	1212.75818	1176.25061	-820.92773	1101.19495	1162.02344	-748.11285	967.93335	1152.61414	-658.5625	884.1792	1207.91797	-709.35858	855.46783	1167.84656	-641.33014	796.28796	1174.83765	-913.65118	1411.92786	1569.89246	-971.59326	1216.59521	1652.57642	-970.18158	1094.56702	1665.05432	-956.914	974.82391	1683.81567	-893.73584	836.04083	1658.65222	-951.98486	836.91864	1692.57324	-915.05469	761.25354	1698.80957	-817.73883	961.02002	1319.13647	-839.49194	975.1485	1539.73425	-974.67877	995.73853	1330.98621	-987.2688	1000.52618	1499.09363	-896.14349	648.79028	1265.25098	-911.65289	486.11243	1290.11401	-984.93115	238.39598	1297.87854	-1023.13184	70.47533	1341.90784	-1069.77844	59.31871	1383.32861	-882.75909	42.21273	1357.61743	-836.60181	650.67615	1604.80676	-792.04596	531.70654	1586.03772	-862.12	279.11328	1585.19458	-893.04742	94.15502	1547.10437	-924.58124	68.75372	1495.86072	-750.13275	49.51171	1580.36414	-919.35699	1705.47778	1407.46533	NaN	NaN	NaN	NaN	NaN	NaN	NaN	NaN	NaN	NaN	NaN	NaN	NaN	NaN	NaN	NaN	NaN	NaN	NaN	NaN	NaN	NaN	NaN	NaN	NaN	NaN	NaN
49	0.48	-809.91425	1665.69153	1353.37695	-813.81183	1658.76855	1484.4375	-943.50983	1610.33789	1350.28015	-945.46509	1608.19104	1479.64221	-946.80713	1458.22998	1400.10486	-992.06274	1130.35974	1404.23474	-840.63965	1377.41479	1418.42554	-807.15491	1199.99548	1417.2843	-1034.76355	1290.23242	1467.86365	-863.21289	1412.1012	1250.74402	-831.83643	1212.33276	1176.57593	-813.65021	1100.77979	1162.58459	-738.47845	968.71283	1153.98645	-647.27393	887.45349	1209.76172	-697.6521	857.04791	1170.52588	-628.38776	799.5155	1177.66077	-907.99219	1411.19824	1569.93481	-967.03802	1216.06213	1652.26379	-965.35828	1093.75354	1664.98694	-953.4931	974.32043	1683.58643	-890.43561	835.29138	1658.76477	-948.84192	836.35071	1692.39551	-912.08209	760.48865	1698.73145	-812.16553	960.26392	1319.02271	-834.12262	974.80066	1539.45447	-969.08893	995.13489	1330.75476	-981.69592	1000.06891	1498.86353	-891.65845	648.04822	1265.49915	-908.18506	485.37207	1290.28992	-983.43787	238.30612	1298.1875	-1022.95026	70.53362	1341.99646	-1069.84875	59.64747	1383.50134	-882.66797	42.14901	1357.64441	-830.41943	650.52661	1605.35278	-785.31885	531.75732	1585.99316	-847.0495	276.93634	1584.61011	-871.18005	91.06214	1546.16663	-902.54462	65.58511	1495.01245	-726.50629	49.48052	1577.82263	-912.72296	1704.86829	1407.78223	NaN	NaN	NaN	NaN	NaN	NaN	NaN	NaN	NaN	NaN	NaN	NaN	NaN	NaN	NaN	NaN	NaN	NaN	NaN	NaN	NaN	NaN	NaN	NaN	NaN	NaN	NaN
